<?xml version="1.0" encoding="UTF-8"?>
<svg version="1.1" xmlns="http://www.w3.org/2000/svg" width="136" height="136">
<path d="M0 0 C7.10590801 4.88742326 10.5675595 9.75007504 13 18 C13.54415538 22.17384492 13.58150526 26.29466579 13.57421875 30.5 C13.58838333 31.65749756 13.60254791 32.81499512 13.61714172 34.00756836 C13.65877942 37.6718091 13.67424225 41.33555674 13.6875 45 C13.71655621 48.69278017 13.7510329 52.38543646 13.78999329 56.078125 C13.81248996 58.36843233 13.82830366 60.65881684 13.83683777 62.94921875 C13.84387222 63.97789063 13.85090668 65.0065625 13.8581543 66.06640625 C13.86163376 66.97334229 13.86511322 67.88027832 13.86869812 68.81469727 C13.85917511 71.04565392 13.85917511 71.04565392 15 73 C23.91 73 32.82 73 42 73 C42.20962704 68.19920081 42.20962704 68.19920081 42.38793945 63.3972168 C42.5476372 60.49584686 42.70309263 58.42690918 44.3828125 56.01171875 C46 55 46 55 48.5625 55.125 C51 56 51 56 53 59 C53.30078125 62.36328125 53.30078125 62.36328125 53.3125 66.3125 C53.33763672 68.25576172 53.33763672 68.25576172 53.36328125 70.23828125 C52.97205704 74.28934483 52.24063349 76.61708276 50 80 C45.95932108 83.10272176 42.40479848 83.44249631 37.46875 83.3984375 C36.75521362 83.40130768 36.04167725 83.40417786 35.30651855 83.40713501 C33.8037842 83.40916884 32.30102297 83.40368669 30.79833984 83.39111328 C28.50688101 83.37504824 26.21718566 83.39098337 23.92578125 83.41015625 C22.46093363 83.4081737 20.99608711 83.40432976 19.53125 83.3984375 C18.85090698 83.40451019 18.17056396 83.41058289 17.46960449 83.4168396 C13.13481937 83.35320438 10.42933571 82.6686879 7 80 C4.11063271 76.84129902 3.62685985 74.776162 3.63110352 70.53222656 C3.62422012 69.43718811 3.61733673 68.34214966 3.61024475 67.21392822 C3.61640305 66.03473816 3.62256134 64.8555481 3.62890625 63.640625 C3.61151929 61.1380195 3.59393496 58.63541536 3.57617188 56.1328125 C3.56611052 52.19170568 3.5624997 48.25068942 3.56420898 44.30957031 C3.56063047 40.50298163 3.53324875 36.6970894 3.50390625 32.890625 C3.51208878 31.71953186 3.5202713 30.54843872 3.52870178 29.34185791 C3.46016322 21.7770986 2.74224019 15.79052716 -2.81640625 10.16015625 C-3.39261719 9.79792969 -3.96882813 9.43570313 -4.5625 9.0625 C-5.14128906 8.68222656 -5.72007813 8.30195312 -6.31640625 7.91015625 C-12.38482585 4.6295489 -15.8300695 6 -24 6 C-24.33 15.9 -24.66 25.8 -25 36 C-19.16667154 36.24941885 -19.16667154 36.24941885 -13.33251953 36.47802734 C-12.60661621 36.5136377 -11.88071289 36.54924805 -11.1328125 36.5859375 C-10.38918457 36.6173584 -9.64555664 36.6487793 -8.87939453 36.68115234 C-7 37 -7 37 -5 39 C-5.55555556 43.55555556 -5.55555556 43.55555556 -7 45 C-10.43020341 45.25194063 -13.87413911 45.18522745 -17.3125 45.1875 C-18.27607422 45.19974609 -19.23964844 45.21199219 -20.23242188 45.22460938 C-21.16248047 45.22654297 -22.09253906 45.22847656 -23.05078125 45.23046875 C-23.90325439 45.23457764 -24.75572754 45.23868652 -25.6340332 45.24291992 C-28.24524398 44.97482017 -29.80076119 44.42091468 -32 43 C-36.38004582 36.42993127 -35.18299652 27.07991014 -35.1875 19.4375 C-35.19974609 18.33986328 -35.21199219 17.24222656 -35.22460938 16.11132812 C-35.24819997 3.06572724 -35.24819997 3.06572724 -31.625 -1.875 C-23.65600539 -7.39199627 -7.67653406 -4.72607488 0 0 Z " fill="#6070F4" transform="translate(40,48)"/>
<path d="M0 0 C0.78436935 -0.00807175 1.56873871 -0.01614349 2.37687683 -0.02445984 C4.03874502 -0.03829937 5.70064162 -0.04902212 7.36254883 -0.05688477 C9.8978501 -0.07408228 12.43184189 -0.1179653 14.96679688 -0.16210938 C16.58202167 -0.1722379 18.19725754 -0.18075351 19.8125 -0.1875 C20.56787552 -0.20500809 21.32325104 -0.22251617 22.10151672 -0.24055481 C25.82113416 -0.22531209 27.90249854 0.10770101 31.0612793 2.13989258 C34.11690063 5.27653003 34.23328439 7.00930855 34.26318359 11.27954102 C34.27344574 12.33146133 34.28370789 13.38338165 34.29428101 14.46717834 C34.30158234 15.60980637 34.30888367 16.75243439 34.31640625 17.9296875 C34.34449007 20.34310556 34.37315462 22.75651693 34.40234375 25.16992188 C34.44350179 28.97924505 34.48038309 32.78844517 34.50683594 36.59790039 C34.53456482 40.27126072 34.58045536 43.94404965 34.62890625 47.6171875 C34.63215912 48.7456459 34.63541199 49.87410431 34.63876343 51.03675842 C34.75936304 58.85509538 35.45319494 65.75243567 40.29296875 72.11328125 C47.03603449 77.20804203 53.76332899 78.00065606 62.10546875 77.23828125 C63.9358093 75.4079407 63.23589672 72.50616133 63.23828125 70.05078125 C63.23957031 68.79523438 63.24085937 67.5396875 63.2421875 66.24609375 C63.24009277 65.58899414 63.23799805 64.93189453 63.23583984 64.25488281 C63.23049109 62.2466679 63.23578566 60.23867666 63.2421875 58.23046875 C63.24089844 56.97492187 63.23960938 55.719375 63.23828125 54.42578125 C63.23658936 52.68361328 63.23658936 52.68361328 63.23486328 50.90625 C63.40884349 48.31764841 63.40884349 48.31764841 62.10546875 47.23828125 C58.73878679 47.03492462 55.37936943 46.89154946 52.0078125 46.80859375 C46.59561046 46.57199475 46.59561046 46.57199475 44.0859375 44.86328125 C43.10546875 43.23828125 43.10546875 43.23828125 43.29296875 40.61328125 C44.10546875 38.23828125 44.10546875 38.23828125 46.10546875 37.23828125 C49.18239208 36.9739958 52.26844931 37.00673877 55.35546875 36.98828125 C56.20238281 36.96765625 57.04929687 36.94703125 57.921875 36.92578125 C63.06498913 36.89378676 66.68812604 37.30253175 71.10546875 40.23828125 C73.65028129 44.05550007 73.46463074 47.23583803 73.51171875 51.66796875 C73.5231189 52.49531525 73.53451904 53.32266174 73.54626465 54.17507935 C73.56514878 55.92509863 73.57822637 57.67518879 73.5859375 59.42529297 C73.6053526 62.09729542 73.66739481 64.76621989 73.73046875 67.4375 C73.74352981 69.13930468 73.75403038 70.84113132 73.76171875 72.54296875 C73.78641235 73.33895477 73.81110596 74.1349408 73.83654785 74.95504761 C73.7934222 80.34901024 73.7934222 80.34901024 71.85017395 82.86091614 C66.11164119 87.89650173 59.30276611 87.36026934 52.10546875 87.23828125 C44.16114115 86.67082928 36.46454827 83.10988012 31.2109375 77.0546875 C25.47440936 68.77789629 24.7887391 61.49736576 24.69140625 51.62109375 C24.6720401 50.40880096 24.65267395 49.19650818 24.63272095 47.94747925 C24.5730756 44.08615086 24.5265993 40.22479242 24.48046875 36.36328125 C24.44227519 33.74087262 24.40322266 31.11847634 24.36328125 28.49609375 C24.26738628 22.07693286 24.1822947 15.65769716 24.10546875 9.23828125 C20.16798417 9.20929309 16.23052696 9.19148661 12.29296875 9.17578125 C11.17341797 9.16740234 10.05386719 9.15902344 8.90039062 9.15039062 C7.82724609 9.14716797 6.75410156 9.14394531 5.6484375 9.140625 C4.6586792 9.13538818 3.6689209 9.13015137 2.64916992 9.12475586 C-0.01845859 9.12758166 -0.01845859 9.12758166 -2.89453125 10.23828125 C-2.94351563 11.1303125 -2.9925 12.02234375 -3.04296875 12.94140625 C-3.11773437 14.111875 -3.1925 15.28234375 -3.26953125 16.48828125 C-3.33914062 17.6484375 -3.40875 18.80859375 -3.48046875 20.00390625 C-3.85701433 22.94522459 -4.37194355 24.73777136 -5.89453125 27.23828125 C-8.76953125 27.42578125 -8.76953125 27.42578125 -11.89453125 27.23828125 C-14.42518388 23.44230231 -14.26205386 20.32622236 -14.26953125 15.92578125 C-14.30626953 14.80526367 -14.30626953 14.80526367 -14.34375 13.66210938 C-14.37148053 8.39792953 -13.37424017 5.41005124 -9.89453125 1.23828125 C-6.76960706 -0.32418084 -3.43257692 0.03329998 0 0 Z " fill="#5E6FF7" transform="translate(57.89453125,6.76171875)"/>
<path d="M0 0 C1.88145154 3.20175968 2.26188926 5.59373973 2.30297852 9.28759766 C2.31962051 10.34194 2.33626251 11.39628235 2.35340881 12.48257446 C2.36182297 13.61496552 2.37023712 14.74735657 2.37890625 15.9140625 C2.39590073 17.08004974 2.4128952 18.24603699 2.43040466 19.44735718 C2.48355502 23.17318307 2.52384753 26.89899767 2.5625 30.625 C2.60639327 34.35808698 2.65305673 38.09108657 2.70530701 41.82406616 C2.73732101 44.14775034 2.76419317 46.47151193 2.78553772 48.7953186 C2.79902756 49.84335663 2.8125174 50.89139465 2.82641602 51.97119141 C2.83592789 52.89622467 2.84543976 53.82125793 2.85523987 54.77432251 C2.85794549 57.03940677 2.85794549 57.03940677 4 59 C12.91 59 21.82 59 31 59 C31.20962704 54.19920081 31.20962704 54.19920081 31.38793945 49.3972168 C31.5476372 46.49584686 31.70309263 44.42690918 33.3828125 42.01171875 C35 41 35 41 37.5625 41.125 C40 42 40 42 42 45 C42.30078125 48.36328125 42.30078125 48.36328125 42.3125 52.3125 C42.32925781 53.60800781 42.34601563 54.90351562 42.36328125 56.23828125 C41.97205704 60.28934483 41.24063349 62.61708276 39 66 C34.95932108 69.10272176 31.40479848 69.44249631 26.46875 69.3984375 C25.75521362 69.40130768 25.04167725 69.40417786 24.30651855 69.40713501 C22.8037842 69.40916884 21.30102297 69.40368669 19.79833984 69.39111328 C17.50688101 69.37504824 15.21718566 69.39098337 12.92578125 69.41015625 C11.46093363 69.4081737 9.99608711 69.40432976 8.53125 69.3984375 C7.85090698 69.40451019 7.17056396 69.41058289 6.46960449 69.4168396 C2.15039528 69.35343304 -0.50690837 68.53913133 -4 66 C-2.0625 65.4375 -2.0625 65.4375 0 65 C0.33 65.33 0.66 65.66 1 66 C3.21855264 66.08783542 5.43988496 66.10694609 7.66015625 66.09765625 C8.32462265 66.0962413 8.98908905 66.09482635 9.6736908 66.09336853 C11.80333899 66.08775518 13.93288339 66.07520054 16.0625 66.0625 C17.50325369 66.05748671 18.94400903 66.05292351 20.38476562 66.04882812 C23.92321102 66.03778145 27.46159539 66.02050792 31 66 C31 64.68 31 63.36 31 62 C29.69011108 61.96241577 29.69011108 61.96241577 28.35375977 61.92407227 C25.12397448 61.82912291 21.89435846 61.72987971 18.66479492 61.62768555 C17.26510801 61.58428566 15.86536641 61.54261436 14.46557617 61.50268555 C12.45738505 61.44510555 10.44938851 61.38086 8.44140625 61.31640625 C7.23170166 61.27974854 6.02199707 61.24309082 4.77563477 61.20532227 C2 61 2 61 1 60 C0.87655973 58.12903889 0.82207606 56.25349072 0.79467773 54.37866211 C0.77473251 53.17749252 0.75478729 51.97632294 0.73423767 50.73875427 C0.71752518 49.4314888 0.70081268 48.12422333 0.68359375 46.77734375 C0.66303042 45.43355153 0.64203412 44.08976588 0.62062073 42.74598694 C0.56533581 39.20325013 0.51595502 35.66045433 0.46777344 32.11761475 C0.41760513 28.5047885 0.36189475 24.89204828 0.30664062 21.27929688 C0.19898063 14.18627253 0.0975532 7.09317112 0 0 Z " fill="#6570DA" transform="translate(51,62)"/>
<path d="M0 0 C0.72445313 -0.00322266 1.44890625 -0.00644531 2.1953125 -0.00976562 C5.9807029 0.02864701 7.78295894 0.16780596 11 2.3125 C10.37890625 4.2734375 10.37890625 4.2734375 9 6.3125 C6.21484375 6.8515625 6.21484375 6.8515625 2.9375 6.9375 C0.95533692 6.99877971 -1.027345 7.1091335 -3 7.3125 C-4.44962183 10.21174366 -4.22126481 12.83550355 -4.31640625 16.0703125 C-4.33718735 16.73336395 -4.35796844 17.39641541 -4.37937927 18.07955933 C-4.44479231 20.19876694 -4.50372105 22.318099 -4.5625 24.4375 C-4.60569309 25.87371081 -4.64930764 27.30990902 -4.69335938 28.74609375 C-4.80046499 32.26809594 -4.90175575 35.79023825 -5 39.3125 C-7.35171131 38.71388258 -9.6859378 38.04325648 -12 37.3125 C-14.08133621 33.14982759 -13.18492343 27.6984074 -13.1875 23.125 C-13.19974609 22.00029297 -13.21199219 20.87558594 -13.22460938 19.71679688 C-13.24678546 7.14295715 -13.24678546 7.14295715 -9.875 1.39453125 C-6.7728675 -0.39565771 -3.47663457 -0.07732728 0 0 Z " fill="#5E70FD" transform="translate(18,44.6875)"/>
<path d="M0 0 C0.72445313 -0.00322266 1.44890625 -0.00644531 2.1953125 -0.00976562 C5.9807029 0.02864701 7.78295894 0.16780596 11 2.3125 C10.34 3.6325 9.68 4.9525 9 6.3125 C4.38 6.3125 -0.24 6.3125 -5 6.3125 C-4.34 4.9925 -3.68 3.6725 -3 2.3125 C-5.44480079 2.50078772 -5.44480079 2.50078772 -8 3.3125 C-10.37100898 6.69965568 -10.30770424 10.00526129 -10.4140625 14.046875 C-10.45273438 15.34238281 -10.49140625 16.63789062 -10.53125 17.97265625 C-10.56270267 19.33593284 -10.59395007 20.69921418 -10.625 22.0625 C-10.66320469 23.44143028 -10.70225787 24.82033734 -10.7421875 26.19921875 C-10.83648004 29.57017718 -10.9220822 32.94112978 -11 36.3125 C-11.66 35.9825 -12.32 35.6525 -13 35.3125 C-13.05843491 31.29172848 -13.0937424 27.27106741 -13.125 23.25 C-13.14175781 22.11626953 -13.15851562 20.98253906 -13.17578125 19.81445312 C-13.24963916 7.14782231 -13.24963916 7.14782231 -9.875 1.39453125 C-6.7728675 -0.39565771 -3.47663457 -0.07732728 0 0 Z " fill="#515DF6" transform="translate(18,44.6875)"/>
<path d="M0 0 C2.26803401 3.40205102 2.26679945 4.66575786 2.31884766 8.66479492 C2.33871735 9.82577194 2.35858704 10.98674896 2.37905884 12.1829071 C2.39638565 14.06270012 2.39638565 14.06270012 2.4140625 15.98046875 C2.43342865 17.26359451 2.4527948 18.54672028 2.4727478 19.86872864 C2.52407292 23.2766095 2.56369632 26.68452986 2.60089111 30.09259033 C2.64092857 33.57159193 2.69202204 37.05042918 2.7421875 40.52929688 C2.83895107 47.35274449 2.92335439 54.17629758 3 61 C0.26831827 58.26831827 0.05775367 56.23380773 -0.12025452 52.43096924 C-0.11803391 51.46278259 -0.11581329 50.49459595 -0.11352539 49.49707031 C-0.11344986 48.39623108 -0.11337433 47.29539185 -0.11329651 46.16119385 C-0.10813522 44.97878113 -0.10297394 43.79636841 -0.09765625 42.578125 C-0.0962413 41.36300232 -0.09482635 40.14787964 -0.09336853 38.89593506 C-0.08776988 35.01393169 -0.0752176 31.13198594 -0.0625 27.25 C-0.05748483 24.61849042 -0.05292195 21.98697993 -0.04882812 19.35546875 C-0.03780089 12.90362617 -0.02106408 6.4518172 0 0 Z " fill="#6B7ADD" transform="translate(83,16)"/>
<path d="M0 0 C2.81296193 0.30410399 4.52876411 0.56648542 6.64086914 2.50952148 C8.60538739 6.10931503 8.44825159 9.59747359 8.43359375 13.59765625 C8.4388356 14.42833115 8.44407745 15.25900604 8.44947815 16.11485291 C8.45589046 17.86732873 8.45457157 19.61984764 8.44604492 21.37231445 C8.4375177 24.05692748 8.46633261 26.73942433 8.49804688 29.42382812 C8.49965856 31.12760353 8.49908197 32.8313827 8.49609375 34.53515625 C8.51294472 35.73991356 8.51294472 35.73991356 8.53013611 36.9690094 C8.46023298 42.5402096 8.46023298 42.5402096 5.96899414 45.02905273 C5.31922607 45.34946533 4.66945801 45.66987793 4 46 C4 44.68 4 43.36 4 42 C4.66 42 5.32 42 6 42 C6 30.45 6 18.9 6 7 C5.34 7 4.68 7 4 7 C1.875 5.1875 1.875 5.1875 0 3 C0 2.01 0 1.02 0 0 Z " fill="#6974DE" transform="translate(123,45)"/>
<path d="M0 0 C0.85078125 0.00322266 1.7015625 0.00644531 2.578125 0.00976562 C3.46757813 0.01814453 4.35703125 0.02652344 5.2734375 0.03515625 C6.170625 0.03966797 7.0678125 0.04417969 7.9921875 0.04882812 C10.21100398 0.06063034 12.42968768 0.0770947 14.6484375 0.09765625 C14.6484375 0.42765625 14.6484375 0.75765625 14.6484375 1.09765625 C9.3684375 1.75765625 4.0884375 2.41765625 -1.3515625 3.09765625 C-1.0215625 4.41765625 -0.6915625 5.73765625 -0.3515625 7.09765625 C0.49148437 7.08605469 1.33453125 7.07445312 2.203125 7.0625 C3.29882812 7.05347656 4.39453125 7.04445313 5.5234375 7.03515625 C6.61398438 7.02355469 7.70453125 7.01195312 8.828125 7 C11.6484375 7.09765625 11.6484375 7.09765625 13.6484375 8.09765625 C13.3184375 9.08765625 12.9884375 10.07765625 12.6484375 11.09765625 C12.3184375 10.76765625 11.9884375 10.43765625 11.6484375 10.09765625 C8.28175554 9.89429962 4.92233818 9.75092446 1.55078125 9.66796875 C-3.86142079 9.43136975 -3.86142079 9.43136975 -6.37109375 7.72265625 C-7.3515625 6.09765625 -7.3515625 6.09765625 -7.1640625 3.47265625 C-5.83732823 -0.40549008 -3.70174435 -0.0246783 0 0 Z " fill="#646EE3" transform="translate(108.3515625,43.90234375)"/>
<path d="M0 0 C1.66611905 -0.042721 3.33382885 -0.04063832 5 0 C6 1 6 1 6.09765625 4.59765625 C6.0909822 6.08596867 6.07902183 7.57426432 6.0625 9.0625 C6.05798828 9.82111328 6.05347656 10.57972656 6.04882812 11.36132812 C6.0370068 13.24091871 6.01907078 15.12046899 6 17 C4.35 17.33 2.7 17.66 1 18 C-0.2062252 14.38132441 -0.10816918 11.07493749 -0.0625 7.3125 C-0.05798828 6.61060547 -0.05347656 5.90871094 -0.04882812 5.18554688 C-0.03706927 3.45699462 -0.01913454 1.72848635 0 0 Z " fill="#5E6FFC" transform="translate(85,105)"/>
<path d="M0 0 C1.88145154 3.20175968 2.26188926 5.59373973 2.30297852 9.28759766 C2.31962051 10.34194 2.33626251 11.39628235 2.35340881 12.48257446 C2.36182297 13.61496552 2.37023712 14.74735657 2.37890625 15.9140625 C2.39590073 17.08004974 2.4128952 18.24603699 2.43040466 19.44735718 C2.48355502 23.17318307 2.52384753 26.89899767 2.5625 30.625 C2.60639327 34.35808698 2.65305673 38.09108657 2.70530701 41.82406616 C2.73732101 44.14775034 2.76419317 46.47151193 2.78553772 48.7953186 C2.79902756 49.84335663 2.8125174 50.89139465 2.82641602 51.97119141 C2.83592789 52.89622467 2.84543976 53.82125793 2.85523987 54.77432251 C2.85794549 57.03940677 2.85794549 57.03940677 4 59 C12.25 59.33 20.5 59.66 29 60 C29 60.33 29 60.66 29 61 C24.52084672 61.02886338 20.04171709 61.04675187 15.5625 61.0625 C14.28310547 61.07087891 13.00371094 61.07925781 11.68554688 61.08789062 C10.47060547 61.09111328 9.25566406 61.09433594 8.00390625 61.09765625 C6.87799072 61.10289307 5.7520752 61.10812988 4.59204102 61.11352539 C2 61 2 61 1 60 C0.87655973 58.12903889 0.82207606 56.25349072 0.79467773 54.37866211 C0.77473251 53.17749252 0.75478729 51.97632294 0.73423767 50.73875427 C0.71752518 49.4314888 0.70081268 48.12422333 0.68359375 46.77734375 C0.66303042 45.43355153 0.64203412 44.08976588 0.62062073 42.74598694 C0.56533581 39.20325013 0.51595502 35.66045433 0.46777344 32.11761475 C0.41760513 28.5047885 0.36189475 24.89204828 0.30664062 21.27929688 C0.19898063 14.18627253 0.0975532 7.09317112 0 0 Z " fill="#5B6BDD" transform="translate(51,62)"/>
<path d="M0 0 C1.98 0.66 3.96 1.32 6 2 C5.67 2.99 5.34 3.98 5 5 C5.556875 5.12375 6.11375 5.2475 6.6875 5.375 C7.450625 5.58125 8.21375 5.7875 9 6 C9.886875 6.226875 10.77375 6.45375 11.6875 6.6875 C12.8321875 7.3371875 12.8321875 7.3371875 14 8 C14.8125 11.125 14.8125 11.125 15 14 C12.625 13.75 12.625 13.75 10 13 C8.8125 11 8.8125 11 8 9 C7.34 8.67 6.68 8.34 6 8 C6 8.66 6 9.32 6 10 C3.125 9.3125 3.125 9.3125 0 8 C-1.375 5.375 -1.375 5.375 -2 3 C-1.34 3 -0.68 3 0 3 C0 2.01 0 1.02 0 0 Z " fill="#5B6EFB" transform="translate(94,78)"/>
<path d="M0 0 C0.66 0 1.32 0 2 0 C2.06058594 0.98742187 2.12117188 1.97484375 2.18359375 2.9921875 C2.26738281 4.27351563 2.35117188 5.55484375 2.4375 6.875 C2.51871094 8.15117188 2.59992188 9.42734375 2.68359375 10.7421875 C2.79206027 13.88300152 2.79206027 13.88300152 4 16 C4.66 16.33 5.32 16.66 6 17 C5.67 17.99 5.34 18.98 5 20 C4.34 20 3.68 20 3 20 C3.33 20.99 3.66 21.98 4 23 C2.35 23 0.7 23 -1 23 C-0.95875 22.21625 -0.9175 21.4325 -0.875 20.625 C-0.71271266 17.83883881 -0.71271266 17.83883881 -3 16 C-2.34 15.67 -1.68 15.34 -1 15 C-0.68758629 12.45058627 -0.48696579 9.99638487 -0.375 7.4375 C-0.33632812 6.72658203 -0.29765625 6.01566406 -0.2578125 5.28320312 C-0.16328217 3.52257575 -0.08054183 1.76132272 0 0 Z " fill="#6673EC" transform="translate(83,106)"/>
<path d="M0 0 C0.33 0.99 0.66 1.98 1 3 C2.33076989 3.34342449 3.66431979 3.67619874 5 4 C7 7 7 7 6.625 9.6875 C6.41875 10.450625 6.2125 11.21375 6 12 C5.01 12 4.02 12 3 12 C2.67 10.68 2.34 9.36 2 8 C0.329375 7.566875 0.329375 7.566875 -1.375 7.125 C-5 6 -5 6 -7 4 C-3.535 3.505 -3.535 3.505 0 3 C0 2.01 0 1.02 0 0 Z " fill="#5E6FFB" transform="translate(38,48)"/>
<path d="M0 0 C2.475 0.495 2.475 0.495 5 1 C5 1.99 5 2.98 5 4 C7.65228812 5.07525194 10.28368454 6.09456151 13 7 C13.33 7.99 13.66 8.98 14 10 C8.99344026 8.65677666 4.80288871 6.53050549 1 3 C0.67 2.01 0.34 1.02 0 0 Z " fill="#6772E1" transform="translate(89,82)"/>
<path d="M0 0 C2.475 0.495 2.475 0.495 5 1 C5.33 2.65 5.66 4.3 6 6 C4.02 6.99 4.02 6.99 2 8 C-0.15550181 4.76674728 0 3.68800782 0 0 Z " fill="#606EE2" transform="translate(29,85)"/>
<path d="M0 0 C0.66 0.33 1.32 0.66 2 1 C1.125 8.875 1.125 8.875 0 10 C-1.99958364 10.04080783 -4.00045254 10.04254356 -6 10 C-6.33 9.34 -6.66 8.68 -7 8 C-5.68 8.33 -4.36 8.66 -3 9 C-3 8.34 -3 7.68 -3 7 C-2.01 7 -1.02 7 0 7 C0 4.69 0 2.38 0 0 Z " fill="#5B6CDA" transform="translate(52,24)"/>
<path d="M0 0 C0.33 0 0.66 0 1 0 C1.19335938 0.60328125 1.38671875 1.2065625 1.5859375 1.828125 C1.84632812 2.62734375 2.10671875 3.4265625 2.375 4.25 C2.63023438 5.03890625 2.88546875 5.8278125 3.1484375 6.640625 C3.95173667 8.86627958 4.89711662 10.90931672 6 13 C4.0625 12.25 4.0625 12.25 2 11 C1.25 8.875 1.25 8.875 1 7 C0.34 7 -0.32 7 -1 7 C-0.67 4.69 -0.34 2.38 0 0 Z " fill="#636ED2" transform="translate(92,67)"/>
</svg>
